PathFileType	4	(X/Y/Z)	H:\MAC\Pilotos\Biomecanica2_gait_2020\Trimmed_walk1.trc
DataRate	CameraRate	NumFrames	NumMarkers	Units	OrigDataRate	OrigDataStartFrame	OrigNumFrames
150.00	150.00	       9	28	mm	150.00	319	       364
Frame#	Time	R.ASIS			L.ASIS			R.PSIS			L.PSIS			L.Iliac.Crest			R.Iliac.Crest			R.GTR			R.Knee			R.HF			R.TT			R.Ankle			R.Heel			R.MT1			R.MT5			L.GTR			L.Knee			L.HF			L.TT			L.Ankle			L.Heel			L.MT1			L.MT5			R.Knee.Medial			R.Ankle.Medial			R.MT2			L.Knee.Medial			L.Ankle.Medial			L.MT2			
		X1	Y1	Z1	X2	Y2	Z2	X3	Y3	Z3	X4	Y4	Z4	X5	Y5	Z5	X6	Y6	Z6	X7	Y7	Z7	X8	Y8	Z8	X9	Y9	Z9	X10	Y10	Z10	X11	Y11	Z11	X12	Y12	Z12	X13	Y13	Z13	X14	Y14	Z14	X15	Y15	Z15	X16	Y16	Z16	X17	Y17	Z17	X18	Y18	Z18	X19	Y19	Z19	X20	Y20	Z20	X21	Y21	Z21	X22	Y22	Z22	X23	Y23	Z23	X24	Y24	Z24	X25	Y25	Z25	X26	Y26	Z26	X27	Y27	Z27	X28	Y28	Z28	

319	2.120	2368.42017	1046.85596	-441.18503	2341.89502	1046.62354	-211.93071	2171.93188	1080.05518	-383.79144	2161.88843	1077.14197	-286.00830	2254.14014	1106.49243	-173.06949	2287.15161	1107.92590	-492.76755	2274.79492	972.41431	-520.48590	2280.14600	538.82397	-447.90100	2272.47705	472.41000	-447.09720	2337.40576	451.17120	-392.91043	2254.59424	70.22247	-402.68121	2197.18530	45.43930	-356.70206	2416.19238	47.99167	-330.00543	2378.78345	35.47597	-412.95908	2270.57471	948.02319	-151.75919	2346.90894	543.34723	-172.91362	2316.03223	498.54160	-168.70189	2365.30664	436.33035	-215.48502	2049.39404	226.69682	-225.38104	1992.53186	236.04759	-286.33224	2138.10669	82.54830	-279.16354	2099.44141	108.28912	-206.68161	2279.21069	535.91595	-309.79211	2268.54590	94.38966	-312.76193	2415.75391	41.20243	-362.02789	2388.31836	526.33380	-294.65009	2094.18066	210.51064	-310.40759	2133.17065	82.34993	-244.52550	
320	2.127	2374.87305	1047.01624	-442.32764	2349.82446	1047.50818	-212.94609	2179.04907	1080.57104	-383.00229	2169.69678	1077.78625	-285.21844	2263.19067	1107.47192	-173.41428	2293.20972	1108.13599	-493.06232	2280.15747	972.46179	-520.31165	2281.94897	539.00507	-447.82446	2273.86133	472.57089	-446.92883	2338.84668	450.97531	-393.28522	2254.57495	70.30135	-402.59253	2197.26440	45.63255	-356.52191	2416.30737	47.98763	-330.21521	2379.19067	35.53193	-412.97327	2279.54443	949.27325	-151.42456	2361.68774	545.11316	-173.43877	2331.47021	499.80386	-169.35994	2381.50757	438.55264	-216.22845	2070.10400	222.09470	-224.39021	2012.33630	229.80336	-285.10526	2163.12842	81.26614	-278.77985	2123.88623	105.67117	-206.18617	2281.83716	536.00586	-309.85336	2268.84204	94.48125	-312.72275	2415.96167	41.08991	-362.42560	2401.96191	529.06592	-295.48840	2114.59155	207.36775	-309.80569	2158.49805	80.69762	-244.14822	
321	2.133	2381.20654	1047.00293	-443.44656	2357.75269	1048.13428	-213.90437	2186.12305	1081.01501	-382.17325	2177.29297	1078.28491	-284.44159	2270.96533	1108.25745	-173.29173	2299.45850	1108.12244	-493.32294	2285.50903	972.34949	-520.10028	2283.86523	539.15131	-447.70822	2275.33057	472.70081	-446.73987	2340.54883	450.63962	-393.45053	2254.54614	70.43250	-402.44974	2197.48999	45.62762	-356.05035	2416.44873	47.98162	-330.42459	2378.79688	35.24789	-413.29907	2287.97412	950.35809	-151.24544	2376.11646	547.49414	-174.20932	2346.90210	500.71906	-169.62648	2397.51294	440.75275	-217.01842	2090.94629	217.14607	-223.69313	2032.52686	223.03471	-284.14203	2188.56055	79.83932	-278.38269	2148.63843	102.95197	-205.44170	2284.52539	536.08069	-309.89435	2269.13330	94.56866	-312.64969	2416.06201	41.06109	-362.59177	2415.25879	531.93365	-296.41022	2135.50317	203.79428	-309.27765	2184.26929	78.99857	-243.55128	
322	2.140	2387.90137	1046.89075	-444.55621	2365.77417	1048.72839	-214.85194	2193.20898	1081.24719	-381.35358	2184.71167	1078.58057	-283.71756	2279.43774	1108.59412	-173.72458	2305.67114	1108.01819	-493.52457	2290.47314	972.07123	-519.92493	2285.91138	539.22430	-447.54877	2276.95605	472.84067	-446.55063	2342.16992	450.42026	-393.55746	2254.56006	70.57181	-402.32779	2197.46948	45.07343	-355.83954	2416.60962	47.95852	-330.62631	2378.79785	35.14573	-413.43008	2297.97388	951.68665	-151.06454	2390.37866	548.82489	-174.98822	2361.99854	501.54718	-170.14166	2413.33716	442.92575	-217.92636	2112.20874	211.79984	-223.00888	2053.08154	215.84021	-283.18979	2214.43555	78.25976	-277.89301	2173.64893	99.87342	-204.90080	2287.28003	536.13568	-309.91180	2269.46875	94.64747	-312.40903	2416.17188	41.01054	-362.74197	2427.93237	534.82471	-297.42953	2156.67139	199.75523	-308.75833	2209.94263	77.01913	-242.94951	
323	2.147	2394.00269	1046.61230	-445.62909	2373.57495	1049.02075	-215.78943	2200.11719	1081.26648	-380.49243	2192.08911	1078.75037	-282.96429	2287.18701	1109.04517	-173.99307	2309.82690	1107.84216	-493.65308	2295.76050	971.75055	-519.64252	2288.13916	539.24866	-447.42368	2278.60742	472.94537	-446.35898	2343.83643	450.21341	-393.57220	2254.55518	70.69916	-402.15988	2197.95215	45.32217	-355.48190	2416.74292	47.94745	-330.77957	2379.34106	35.02666	-413.51126	2306.72021	952.70715	-150.83543	2404.45435	550.70673	-175.98730	2376.87549	502.16785	-170.74831	2429.01196	445.03879	-218.91017	2133.73096	206.10442	-222.32922	2074.27832	208.02541	-282.25443	2240.78784	76.51940	-277.23166	2198.96802	96.64043	-204.25388	2290.10522	536.16614	-309.90250	2269.66821	94.64135	-313.54300	2416.26050	40.95999	-362.88702	2440.17334	537.65796	-298.51682	2178.93677	195.27446	-307.25189	2236.21289	74.94992	-242.23599	
324	2.153	2400.34106	1046.25500	-446.57986	2381.65332	1049.18762	-216.67014	2206.95361	1081.21167	-379.62790	2199.48096	1078.78113	-282.24298	2295.51514	1109.15161	-173.99591	2315.38232	1107.39099	-493.92795	2300.96484	971.26953	-519.38751	2290.31421	539.25586	-447.25824	2280.43774	473.01181	-446.09210	2345.90137	449.90347	-393.62381	2254.60229	70.82496	-401.95740	2197.33325	46.09580	-354.98318	2416.89063	47.92082	-330.93646	2379.34521	34.94297	-413.62891	2315.43555	953.33765	-150.95442	2417.89404	552.13239	-177.22397	2391.43066	502.63617	-171.38203	2444.52808	447.09283	-219.99945	2155.59375	200.12573	-221.71832	2095.82153	200.00185	-281.44934	2267.48071	74.58337	-276.33688	2224.57104	93.24478	-203.60486	2293.00635	536.16730	-309.86313	2269.85474	95.02298	-313.21149	2416.39502	40.92203	-363.03027	2451.89404	540.38495	-299.59760	2200.62061	189.59430	-306.78873	2262.81421	72.78876	-241.46600	
325	2.160	2406.46582	1045.72241	-447.53647	2389.40234	1049.13428	-217.52940	2213.74561	1081.05225	-378.85211	2206.72559	1078.64417	-281.50403	2303.83521	1108.91833	-174.31369	2321.72705	1106.86829	-494.05508	2306.27002	970.71625	-519.05573	2292.55908	539.22321	-447.13907	2282.28662	473.14508	-445.80399	2347.80786	449.60773	-393.64047	2254.64795	70.95234	-401.76193	2198.20313	45.92179	-354.78439	2416.99951	47.82492	-331.64874	2378.82690	34.86509	-413.77487	2324.55273	954.17017	-150.88754	2431.07031	553.51575	-178.18317	2405.76855	502.87997	-172.08185	2459.75879	449.06631	-221.14696	2177.77856	193.85777	-221.08286	2117.88403	191.58580	-280.81161	2294.43701	72.63767	-275.41489	2250.47144	89.79244	-202.88942	2295.98804	536.13434	-309.79050	2270.41016	95.09807	-312.74988	2416.51416	40.88392	-363.18317	2463.63306	542.93982	-300.58762	2223.05664	183.34525	-306.13733	2289.75146	70.60650	-240.63957	
326	2.167	2412.98267	1045.42249	-448.08966	2397.31592	1048.99280	-218.34489	2220.57813	1080.69397	-378.03134	2213.99121	1078.41479	-280.83563	2312.60425	1108.92517	-174.27278	2327.55688	1106.22388	-494.07855	2311.63623	970.08636	-518.66205	2295.02515	539.20221	-447.00266	2284.39673	473.19974	-445.57495	2349.70801	449.27798	-393.69540	2254.72681	71.09576	-401.54910	2198.37378	46.25855	-354.41010	2417.38696	47.74613	-332.02850	2378.84644	34.77475	-413.90704	2333.56299	954.66589	-150.81284	2444.05054	554.83936	-178.89186	2419.80396	503.02716	-172.82570	2474.74438	450.94299	-222.28613	2200.33643	187.37909	-220.55070	2140.19263	183.09016	-280.23297	2322.16089	70.77196	-274.83224	2276.69775	86.34960	-202.10599	2299.05518	536.06256	-309.68124	2269.49951	95.17487	-312.34061	2416.60474	40.81860	-363.37985	2474.95459	545.09937	-301.48169	2243.90332	180.85115	-306.90585	2316.87256	68.46539	-239.72461	
327	2.173	2419.26099	1044.81567	-448.76202	2405.20532	1048.76770	-219.04004	2227.31372	1080.31079	-377.34320	2221.24756	1078.09302	-280.12982	2320.69092	1108.69958	-174.07263	2333.51440	1105.46985	-494.03412	2317.14404	969.40338	-518.22644	2297.43750	539.20477	-446.88345	2286.10645	473.34885	-445.33881	2351.71680	448.94046	-393.82370	2254.77148	71.29210	-401.31580	2198.30664	46.67277	-354.02039	2417.91797	47.87355	-332.20184	2378.86255	34.67520	-414.03809	2342.40527	955.02264	-150.76935	2456.72485	555.88092	-179.53778	2433.59424	503.08273	-173.91138	2489.44775	452.68698	-223.35207	2223.17847	180.71193	-219.93637	2163.04395	174.13884	-279.64130	2346.70142	66.44589	-273.38608	2303.26392	82.98264	-201.33754	2302.21289	535.94720	-309.53226	2271.10571	95.41286	-312.58847	2415.98682	40.39883	-363.79269	2485.88794	546.79431	-302.37408	2267.75757	175.39549	-306.23730	2344.67505	66.54532	-238.60899	
